<svg width="20" height="24" viewBox="0 0 20 24" fill="none" xmlns="http://www.w3.org/2000/svg">
<path d="M3.44531 6.58594C3.91172 6.58594 4.28906 6.20859 4.28906 5.74219V0.84375C4.28906 0.377344 3.91172 0 3.44531 0C2.97891 0 2.60156 0.377344 2.60156 0.84375V5.74219C2.60156 6.20859 2.97891 6.58594 3.44531 6.58594ZM17.8125 9.96094H15C15 9.02812 14.2453 8.27344 13.3125 8.27344H1.6875C0.754688 8.27344 0 9.02812 0 9.96094V15.7734C0 15.8531 0.00468743 15.9305 0.0164062 16.0055C0.00468743 16.1695 0 16.3336 0 16.5C0 20.6414 3.35859 24 7.5 24C11.2523 24 14.3602 21.2461 14.9133 17.6484H17.8125C18.7453 17.6484 19.5 16.8937 19.5 15.9609V11.6484C19.5 10.7156 18.7453 9.96094 17.8125 9.96094ZM13.3125 15.9609H13.2867C13.3031 16.1391 13.3125 16.3172 13.3125 16.5C13.3125 19.7109 10.7109 22.3125 7.5 22.3125C4.28906 22.3125 1.6875 19.7109 1.6875 16.5C1.6875 16.3172 1.69688 16.1391 1.71328 15.9609H1.6875V9.96094H13.3125V15.9609ZM17.8125 15.7734H15.1875V11.6484H17.8125V15.7734ZM11.3672 6.58594C11.8336 6.58594 12.2109 6.20859 12.2109 5.74219V0.84375C12.2109 0.377344 11.8336 0 11.3672 0C10.9008 0 10.5234 0.377344 10.5234 0.84375V5.74219C10.5234 6.20859 10.9008 6.58594 11.3672 6.58594ZM7.38281 6.58594C7.84922 6.58594 8.22656 6.20859 8.22656 5.74219V0.84375C8.22656 0.377344 7.84922 0 7.38281 0C6.91641 0 6.53906 0.377344 6.53906 0.84375V5.74219C6.53906 6.20859 6.91641 6.58594 7.38281 6.58594Z" fill="#AAAAAA"/>
</svg>
