<svg id="svg" version="1.1" xmlns="http://www.w3.org/2000/svg" xmlns:xlink="http://www.w3.org/1999/xlink" width="400" height="400" viewBox="0, 0, 400,400"><g id="svgg"><path id="path0" d="M189.800 91.403 C 157.203 96.687,132.564 120.079,126.816 151.200 C 126.552 152.630,126.170 154.664,125.968 155.720 C 124.579 162.968,126.023 178.997,128.877 188.000 C 131.980 197.790,137.266 207.291,143.548 214.367 L 145.472 216.534 147.336 214.816 C 149.614 212.717,149.613 212.777,147.414 210.331 C 139.508 201.538,133.991 189.222,131.600 175.027 C 130.612 169.161,131.228 155.881,132.775 149.700 C 133.009 148.765,133.372 147.318,133.583 146.484 C 140.048 120.902,164.423 100.157,192.000 96.767 C 228.196 92.317,260.650 116.386,268.361 153.400 C 272.559 173.552,265.608 196.612,250.274 213.400 C 247.847 216.057,247.845 216.144,250.170 218.382 L 251.607 219.763 253.641 217.782 C 285.755 186.498,280.616 130.638,243.200 104.291 C 228.503 93.942,206.661 88.670,189.800 91.403 M196.400 131.994 C 175.495 133.842,158.900 149.730,160.996 165.890 C 162.954 180.988,169.804 188.276,189.278 195.986 C 198.935 199.809,200.679 201.200,199.464 204.109 C 197.177 209.583,182.964 207.554,172.260 200.227 C 170.793 199.222,169.527 198.400,169.447 198.400 C 169.036 198.400,156.686 218.076,156.498 219.030 C 155.937 221.866,169.612 230.435,179.200 233.256 C 211.387 242.728,240.992 228.484,240.880 203.580 C 240.813 188.745,233.102 179.997,213.062 172.020 C 204.324 168.542,202.400 167.306,202.400 165.170 C 202.400 158.791,214.465 159.463,224.343 166.393 C 225.604 167.277,226.744 168.000,226.877 168.000 C 227.199 168.000,240.000 147.791,240.000 147.282 C 240.000 146.681,235.631 142.764,233.048 141.049 C 222.432 134.003,209.587 130.829,196.400 131.994 " stroke="none" fill="#050505" fill-rule="evenodd"></path><path id="path1" d="M192.447 90.747 C 191.923 90.894,194.173 90.959,197.447 90.892 C 205.637 90.724,206.633 90.524,199.400 90.500 C 196.100 90.489,192.971 90.600,192.447 90.747 M206.305 91.083 C 206.802 91.179,207.522 91.175,207.905 91.075 C 208.287 90.975,207.880 90.896,207.000 90.901 C 206.120 90.905,205.807 90.987,206.305 91.083 M211.400 91.600 C 213.092 92.031,214.544 92.031,213.200 91.600 C 212.650 91.424,211.750 91.283,211.200 91.287 C 210.302 91.294,210.322 91.326,211.400 91.600 M183.400 92.400 C 182.896 92.617,182.822 92.744,183.200 92.744 C 183.530 92.744,184.160 92.589,184.600 92.400 C 185.104 92.183,185.178 92.056,184.800 92.056 C 184.470 92.056,183.840 92.211,183.400 92.400 M216.000 92.400 C 217.368 92.838,218.419 92.838,217.400 92.400 C 216.960 92.211,216.240 92.062,215.800 92.068 C 215.157 92.077,215.196 92.143,216.000 92.400 M179.800 93.200 C 179.296 93.417,179.222 93.544,179.600 93.544 C 179.930 93.544,180.560 93.389,181.000 93.200 C 181.504 92.983,181.578 92.856,181.200 92.856 C 180.870 92.856,180.240 93.011,179.800 93.200 M196.300 96.697 C 197.895 96.773,200.505 96.773,202.100 96.697 C 203.695 96.621,202.390 96.559,199.200 96.559 C 196.010 96.559,194.705 96.621,196.300 96.697 M209.000 97.223 C 211.026 97.642,212.663 97.623,211.000 97.200 C 210.340 97.032,209.260 96.894,208.600 96.893 C 207.591 96.892,207.655 96.945,209.000 97.223 M185.000 98.000 C 184.496 98.217,184.422 98.344,184.800 98.344 C 185.130 98.344,185.760 98.189,186.200 98.000 C 186.704 97.783,186.778 97.656,186.400 97.656 C 186.070 97.656,185.440 97.811,185.000 98.000 M214.400 98.000 C 215.768 98.438,216.819 98.438,215.800 98.000 C 215.360 97.811,214.640 97.662,214.200 97.668 C 213.557 97.677,213.596 97.743,214.400 98.000 M236.800 100.179 C 236.800 100.289,237.340 100.659,238.000 101.000 C 238.660 101.341,239.200 101.531,239.200 101.421 C 239.200 101.311,238.660 100.941,238.000 100.600 C 237.340 100.259,236.800 100.069,236.800 100.179 M158.699 102.761 C 157.047 103.839,155.586 104.900,155.451 105.118 C 155.256 105.434,161.338 101.550,161.967 100.957 C 162.623 100.338,161.244 101.099,158.699 102.761 M243.200 104.104 C 243.200 104.368,247.487 107.600,247.837 107.600 C 247.986 107.600,247.679 107.273,247.154 106.873 C 244.241 104.655,243.200 103.926,243.200 104.104 M165.500 105.429 C 164.005 106.240,164.096 106.578,165.600 105.800 C 166.260 105.459,166.800 105.094,166.800 104.990 C 166.800 104.732,166.757 104.747,165.500 105.429 M234.200 105.396 C 235.094 106.139,237.628 107.509,237.000 106.910 C 236.780 106.700,235.880 106.124,235.000 105.630 C 234.120 105.135,233.760 105.030,234.200 105.396 M150.981 108.900 L 149.400 110.600 151.100 109.019 C 152.681 107.548,152.984 107.200,152.681 107.200 C 152.616 107.200,151.851 107.965,150.981 108.900 M159.800 109.232 C 157.427 111.026,157.108 111.532,159.333 109.972 C 161.014 108.794,161.929 107.975,161.524 108.011 C 161.456 108.017,160.680 108.567,159.800 109.232 M252.800 112.600 C 255.323 115.130,257.477 117.200,257.587 117.200 C 257.697 117.200,255.723 115.130,253.200 112.600 C 250.677 110.070,248.523 108.000,248.413 108.000 C 248.303 108.000,250.277 110.070,252.800 112.600 M155.775 112.500 L 154.600 113.800 155.900 112.625 C 157.112 111.530,157.384 111.200,157.075 111.200 C 157.006 111.200,156.421 111.785,155.775 112.500 M246.726 114.586 C 248.336 116.092,250.811 118.652,252.226 120.275 C 253.642 121.898,254.800 123.074,254.800 122.889 C 254.800 122.379,246.532 113.745,245.075 112.734 C 244.374 112.247,245.117 113.081,246.726 114.586 M150.592 117.300 L 147.000 121.000 150.700 117.408 C 154.136 114.072,154.582 113.600,154.292 113.600 C 154.232 113.600,152.567 115.265,150.592 117.300 M142.959 116.900 C 141.207 118.921,140.687 119.600,140.890 119.600 C 141.007 119.600,141.767 118.790,142.579 117.800 C 144.081 115.966,144.379 115.263,142.959 116.900 M259.375 119.732 C 259.991 120.539,260.576 121.200,260.675 121.200 C 260.953 121.200,259.221 118.860,258.709 118.544 C 258.459 118.389,258.759 118.924,259.375 119.732 M139.944 120.700 C 138.793 122.089,138.306 122.800,138.504 122.800 C 138.614 122.800,139.186 122.170,139.773 121.400 C 140.863 119.971,140.995 119.432,139.944 120.700 M145.000 123.600 C 143.984 124.920,143.243 126.000,143.353 126.000 C 143.463 126.000,144.384 124.920,145.400 123.600 C 146.416 122.280,147.157 121.200,147.047 121.200 C 146.937 121.200,146.016 122.280,145.000 123.600 M264.360 127.000 C 265.034 128.305,265.588 129.028,265.585 128.600 C 265.583 128.380,265.214 127.750,264.764 127.200 C 264.221 126.536,264.085 126.469,264.360 127.000 M135.000 128.000 C 134.659 128.660,134.469 129.200,134.579 129.200 C 134.689 129.200,135.059 128.660,135.400 128.000 C 135.741 127.340,135.931 126.800,135.821 126.800 C 135.711 126.800,135.341 127.340,135.000 128.000 M141.846 128.200 C 141.491 128.750,140.909 129.695,140.553 130.300 L 139.905 131.400 140.710 130.426 C 141.660 129.276,142.921 127.200,142.669 127.200 C 142.571 127.200,142.201 127.650,141.846 128.200 M200.905 131.487 C 201.514 131.579,202.414 131.577,202.905 131.482 C 203.397 131.387,202.900 131.311,201.800 131.314 C 200.700 131.317,200.297 131.395,200.905 131.487 M260.600 132.400 C 260.941 133.060,261.311 133.600,261.421 133.600 C 261.531 133.600,261.341 133.060,261.000 132.400 C 260.659 131.740,260.289 131.200,260.179 131.200 C 260.069 131.200,260.259 131.740,260.600 132.400 M196.500 131.887 C 197.105 131.978,198.095 131.978,198.700 131.887 C 199.305 131.795,198.810 131.720,197.600 131.720 C 196.390 131.720,195.895 131.795,196.500 131.887 M204.900 131.887 C 205.505 131.978,206.495 131.978,207.100 131.887 C 207.705 131.795,207.210 131.720,206.000 131.720 C 204.790 131.720,204.295 131.795,204.900 131.887 M191.400 132.400 C 190.381 132.838,191.432 132.838,192.800 132.400 C 193.604 132.143,193.643 132.077,193.000 132.068 C 192.560 132.062,191.840 132.211,191.400 132.400 M210.033 132.147 C 210.125 132.228,210.920 132.404,211.800 132.538 C 212.915 132.707,213.158 132.671,212.600 132.419 C 211.832 132.071,209.690 131.844,210.033 132.147 M187.800 133.200 C 187.296 133.417,187.222 133.544,187.600 133.544 C 187.930 133.544,188.560 133.389,189.000 133.200 C 189.504 132.983,189.578 132.856,189.200 132.856 C 188.870 132.856,188.240 133.011,187.800 133.200 M229.400 138.690 C 229.620 138.900,230.520 139.476,231.400 139.970 C 232.280 140.465,232.640 140.570,232.200 140.204 C 231.306 139.461,228.772 138.091,229.400 138.690 M233.200 140.925 C 233.200 141.024,233.861 141.609,234.668 142.225 C 235.476 142.841,236.011 143.141,235.856 142.891 C 235.540 142.379,233.200 140.647,233.200 140.925 M169.600 143.400 C 168.628 144.390,167.923 145.200,168.033 145.200 C 168.143 145.200,169.028 144.390,170.000 143.400 C 170.972 142.410,171.677 141.600,171.567 141.600 C 171.457 141.600,170.572 142.410,169.600 143.400 M238.155 145.069 C 239.473 146.465,240.028 147.351,239.859 147.790 C 239.713 148.170,239.774 148.340,240.005 148.197 C 240.781 147.717,240.370 146.941,238.300 144.985 L 236.200 143.000 238.155 145.069 M133.829 145.429 C 133.681 146.015,133.638 146.572,133.732 146.666 C 133.827 146.760,134.024 146.358,134.171 145.771 C 134.319 145.185,134.362 144.628,134.268 144.534 C 134.173 144.440,133.976 144.842,133.829 145.429 M272.856 148.000 C 272.856 148.330,273.011 148.960,273.200 149.400 C 273.417 149.904,273.544 149.978,273.544 149.600 C 273.544 149.270,273.389 148.640,273.200 148.200 C 272.983 147.696,272.856 147.622,272.856 148.000 M126.622 150.222 C 126.472 151.025,126.428 151.762,126.526 151.860 C 126.624 151.957,126.827 151.381,126.978 150.578 C 127.128 149.775,127.172 149.038,127.074 148.940 C 126.976 148.843,126.773 149.419,126.622 150.222 M238.646 149.800 C 238.291 150.350,237.709 151.295,237.353 151.900 L 236.705 153.000 237.510 152.026 C 238.460 150.876,239.721 148.800,239.469 148.800 C 239.371 148.800,239.001 149.250,238.646 149.800 M267.256 149.600 C 267.256 149.930,267.411 150.560,267.600 151.000 C 267.817 151.504,267.944 151.578,267.944 151.200 C 267.944 150.870,267.789 150.240,267.600 149.800 C 267.383 149.296,267.256 149.222,267.256 149.600 M132.222 151.822 C 132.072 152.625,132.028 153.362,132.126 153.460 C 132.224 153.557,132.427 152.981,132.578 152.178 C 132.728 151.375,132.772 150.638,132.674 150.540 C 132.576 150.443,132.373 151.019,132.222 151.822 M125.800 154.800 C 125.646 155.710,125.604 156.538,125.707 156.640 C 125.810 156.743,126.013 156.077,126.160 155.160 C 126.307 154.243,126.348 153.415,126.253 153.320 C 126.158 153.224,125.954 153.890,125.800 154.800 M131.472 156.204 C 131.327 157.082,131.229 158.340,131.253 159.000 C 131.278 159.660,131.455 159.120,131.648 157.800 C 132.040 155.115,131.885 153.707,131.472 156.204 M234.092 156.935 C 233.659 157.669,232.989 158.794,232.605 159.435 L 231.905 160.600 232.733 159.600 C 233.679 158.457,235.344 155.600,235.065 155.600 C 234.963 155.600,234.525 156.201,234.092 156.935 M268.920 160.400 C 268.920 161.610,268.995 162.105,269.087 161.500 C 269.178 160.895,269.178 159.905,269.087 159.300 C 268.995 158.695,268.920 159.190,268.920 160.400 M274.942 162.600 C 274.941 164.580,275.008 165.440,275.092 164.512 C 275.176 163.584,275.177 161.964,275.095 160.912 C 275.012 159.860,274.943 160.620,274.942 162.600 M160.893 161.200 C 160.893 161.970,160.975 162.285,161.076 161.900 C 161.176 161.515,161.176 160.885,161.076 160.500 C 160.975 160.115,160.893 160.430,160.893 161.200 M125.358 165.800 C 125.358 168.880,125.421 170.087,125.497 168.482 C 125.573 166.878,125.573 164.358,125.496 162.882 C 125.419 161.407,125.357 162.720,125.358 165.800 M204.500 161.596 C 203.785 162.032,203.200 162.503,203.200 162.643 C 203.200 162.783,203.437 162.701,203.728 162.460 C 204.018 162.219,204.873 161.754,205.628 161.427 C 206.382 161.099,206.730 160.825,206.400 160.817 C 206.070 160.809,205.215 161.160,204.500 161.596 M210.433 160.947 C 210.525 161.028,211.320 161.204,212.200 161.338 C 213.315 161.507,213.558 161.471,213.000 161.219 C 212.232 160.871,210.090 160.644,210.433 160.947 M228.632 165.600 C 226.963 168.304,226.941 168.315,225.354 167.161 L 224.200 166.322 225.322 167.361 C 226.916 168.837,227.786 168.225,229.955 164.100 C 230.879 162.343,230.092 163.236,228.632 165.600 M269.077 167.556 C 268.913 170.062,268.856 172.189,268.950 172.283 C 269.197 172.530,269.710 165.181,269.528 163.996 C 269.444 163.448,269.242 165.050,269.077 167.556 M220.400 164.179 C 220.400 164.289,220.940 164.659,221.600 165.000 C 222.260 165.341,222.800 165.531,222.800 165.421 C 222.800 165.311,222.260 164.941,221.600 164.600 C 220.940 164.259,220.400 164.069,220.400 164.179 M160.901 167.000 C 160.905 167.880,160.987 168.193,161.083 167.695 C 161.179 167.198,161.175 166.478,161.075 166.095 C 160.975 165.713,160.896 166.120,160.901 167.000 M274.914 170.200 C 274.917 171.300,274.995 171.703,275.087 171.095 C 275.179 170.486,275.177 169.586,275.082 169.095 C 274.987 168.603,274.911 169.100,274.914 170.200 M131.269 172.000 C 131.256 172.550,131.395 173.720,131.577 174.600 C 131.789 175.626,131.916 175.841,131.931 175.200 C 131.944 174.650,131.805 173.480,131.623 172.600 C 131.411 171.574,131.284 171.359,131.269 172.000 M274.501 173.800 C 274.505 174.680,274.587 174.993,274.683 174.495 C 274.779 173.998,274.775 173.278,274.675 172.895 C 274.575 172.513,274.496 172.920,274.501 173.800 M125.693 174.400 C 125.693 175.170,125.775 175.485,125.876 175.100 C 125.976 174.715,125.976 174.085,125.876 173.700 C 125.775 173.315,125.693 173.630,125.693 174.400 M268.222 176.222 C 268.072 177.025,268.028 177.762,268.126 177.860 C 268.224 177.957,268.427 177.381,268.578 176.578 C 268.728 175.775,268.772 175.038,268.674 174.940 C 268.576 174.843,268.373 175.419,268.222 176.222 M222.800 176.179 C 222.800 176.289,223.340 176.659,224.000 177.000 C 224.660 177.341,225.200 177.531,225.200 177.421 C 225.200 177.311,224.660 176.941,224.000 176.600 C 223.340 176.259,222.800 176.069,222.800 176.179 M273.822 178.222 C 273.672 179.025,273.628 179.762,273.726 179.860 C 273.824 179.957,274.027 179.381,274.178 178.578 C 274.328 177.775,274.372 177.038,274.274 176.940 C 274.176 176.843,273.973 177.419,273.822 178.222 M132.056 178.000 C 132.056 178.330,132.211 178.960,132.400 179.400 C 132.617 179.904,132.744 179.978,132.744 179.600 C 132.744 179.270,132.589 178.640,132.400 178.200 C 132.183 177.696,132.056 177.622,132.056 178.000 M126.468 179.400 C 126.462 179.840,126.611 180.560,126.800 181.000 C 127.238 182.019,127.238 180.968,126.800 179.600 C 126.543 178.796,126.477 178.757,126.468 179.400 M267.429 180.629 C 267.281 181.215,267.238 181.772,267.332 181.866 C 267.427 181.960,267.624 181.558,267.771 180.971 C 267.919 180.385,267.962 179.828,267.868 179.734 C 267.773 179.640,267.576 180.042,267.429 180.629 M132.856 181.600 C 132.856 181.930,133.011 182.560,133.200 183.000 C 133.417 183.504,133.544 183.578,133.544 183.200 C 133.544 182.870,133.389 182.240,133.200 181.800 C 132.983 181.296,132.856 181.222,132.856 181.600 M273.246 181.667 C 273.221 182.034,273.096 182.664,272.970 183.067 C 272.752 183.762,272.763 183.763,273.197 183.087 C 273.448 182.696,273.573 182.066,273.473 181.687 C 273.311 181.068,273.288 181.066,273.246 181.667 M167.625 183.031 C 168.381 183.928,169.081 184.597,169.180 184.517 C 169.279 184.438,168.660 183.704,167.805 182.887 L 166.250 181.400 167.625 183.031 M232.973 183.600 C 235.700 186.671,236.348 187.274,234.906 185.400 C 234.228 184.520,233.077 183.260,232.347 182.600 C 231.576 181.903,231.839 182.323,232.973 183.600 M127.206 183.433 C 127.209 183.855,127.395 184.470,127.618 184.800 C 127.915 185.238,127.952 185.076,127.756 184.200 C 127.427 182.729,127.198 182.410,127.206 183.433 M170.783 186.180 C 171.826 187.437,178.000 191.581,178.000 191.024 C 178.000 190.912,177.471 190.547,176.824 190.212 C 176.177 189.878,174.424 188.678,172.928 187.546 C 171.432 186.413,170.467 185.799,170.783 186.180 M262.244 195.442 C 261.450 197.114,260.808 198.599,260.819 198.742 C 260.841 199.058,262.717 195.487,263.466 193.700 C 264.491 191.256,263.691 192.396,262.244 195.442 M133.400 200.000 C 133.741 200.660,134.111 201.200,134.221 201.200 C 134.331 201.200,134.141 200.660,133.800 200.000 C 133.459 199.340,133.089 198.800,132.979 198.800 C 132.869 198.800,133.059 199.340,133.400 200.000 M171.469 199.632 C 171.966 200.233,174.400 201.764,174.400 201.476 C 174.400 201.383,173.635 200.802,172.700 200.185 C 171.765 199.568,171.211 199.320,171.469 199.632 M240.914 201.400 C 240.917 202.500,240.995 202.903,241.087 202.295 C 241.179 201.686,241.177 200.786,241.082 200.295 C 240.987 199.803,240.911 200.300,240.914 201.400 M198.736 200.974 C 199.387 201.827,199.572 202.482,199.414 203.374 C 199.214 204.497,199.230 204.520,199.607 203.642 C 200.113 202.460,199.844 201.535,198.710 200.553 C 197.849 199.808,197.849 199.812,198.736 200.974 M141.477 202.431 C 141.875 203.108,142.456 203.873,142.768 204.131 C 143.080 204.389,142.832 203.835,142.215 202.900 C 140.920 200.937,140.409 200.612,141.477 202.431 M134.415 201.800 C 134.417 202.020,134.786 202.650,135.236 203.200 C 135.779 203.864,135.915 203.931,135.640 203.400 C 134.966 202.095,134.412 201.372,134.415 201.800 M174.800 201.779 C 174.800 201.889,175.340 202.259,176.000 202.600 C 176.660 202.941,177.200 203.131,177.200 203.021 C 177.200 202.911,176.660 202.541,176.000 202.200 C 175.340 201.859,174.800 201.669,174.800 201.779 M258.308 202.500 C 257.433 203.849,256.648 205.456,257.087 205.000 C 257.648 204.417,259.298 201.600,259.079 201.600 C 258.976 201.600,258.629 202.005,258.308 202.500 M177.654 203.387 C 177.990 203.723,180.800 204.816,180.800 204.611 C 180.800 204.501,180.148 204.138,179.351 203.805 C 177.875 203.189,177.318 203.051,177.654 203.387 M164.708 204.900 C 163.833 206.249,163.048 207.856,163.487 207.400 C 164.048 206.817,165.698 204.000,165.479 204.000 C 165.376 204.000,165.029 204.405,164.708 204.900 M240.909 206.400 C 240.909 207.390,240.987 207.795,241.082 207.300 C 241.178 206.805,241.178 205.995,241.082 205.500 C 240.987 205.005,240.909 205.410,240.909 206.400 M184.600 206.000 C 185.040 206.189,185.670 206.344,186.000 206.344 C 186.378 206.344,186.304 206.217,185.800 206.000 C 185.360 205.811,184.730 205.656,184.400 205.656 C 184.022 205.656,184.096 205.783,184.600 206.000 M137.560 207.000 C 138.234 208.305,138.788 209.028,138.785 208.600 C 138.783 208.380,138.414 207.750,137.964 207.200 C 137.421 206.536,137.285 206.469,137.560 207.000 M195.200 206.800 C 194.376 207.064,194.341 207.126,195.000 207.154 C 195.440 207.173,196.070 207.013,196.400 206.800 C 197.101 206.347,196.614 206.347,195.200 206.800 M189.900 207.082 C 190.395 207.178,191.205 207.178,191.700 207.082 C 192.195 206.987,191.790 206.909,190.800 206.909 C 189.810 206.909,189.405 206.987,189.900 207.082 M146.399 209.199 C 147.319 210.298,148.281 211.326,148.536 211.483 C 148.791 211.639,148.123 210.740,147.051 209.484 C 145.980 208.228,145.018 207.200,144.914 207.200 C 144.810 207.200,145.479 208.099,146.399 209.199 M261.200 208.800 C 260.730 209.460,260.436 210.000,260.546 210.000 C 260.656 210.000,261.130 209.460,261.600 208.800 C 262.070 208.140,262.364 207.600,262.254 207.600 C 262.144 207.600,261.670 208.140,261.200 208.800 M251.777 211.300 C 249.478 213.758,247.917 215.715,249.772 213.812 C 252.416 211.102,253.767 209.600,253.562 209.600 C 253.454 209.600,252.651 210.365,251.777 211.300 M258.467 212.377 C 257.770 213.244,257.200 214.067,257.200 214.207 C 257.200 214.436,258.033 213.480,259.558 211.500 C 260.652 210.082,259.692 210.852,258.467 212.377 M159.517 213.100 C 158.285 214.969,157.517 216.400,157.746 216.400 C 157.842 216.400,158.275 215.799,158.708 215.065 C 159.141 214.331,159.810 213.251,160.194 212.665 C 160.578 212.079,160.805 211.600,160.699 211.600 C 160.593 211.600,160.061 212.275,159.517 213.100 M149.232 212.449 C 149.214 212.806,148.361 213.871,147.336 214.816 L 145.472 216.534 143.492 214.367 L 141.511 212.200 143.192 214.299 C 144.116 215.453,145.038 216.500,145.239 216.624 C 145.808 216.976,149.748 213.027,149.487 212.367 C 149.312 211.923,149.256 211.941,149.232 212.449 M254.110 217.282 L 251.627 219.765 250.514 218.794 L 249.400 217.823 250.503 219.005 L 251.605 220.187 254.299 217.494 C 255.780 216.012,256.902 214.800,256.792 214.800 C 256.682 214.800,255.475 215.917,254.110 217.282 M236.305 219.322 C 235.716 220.245,234.127 222.260,232.775 223.800 L 230.315 226.600 232.713 224.137 C 235.069 221.716,237.822 218.089,237.527 217.794 C 237.444 217.711,236.895 218.399,236.305 219.322 M156.267 218.267 C 155.622 218.911,156.132 219.957,157.900 221.617 L 159.800 223.400 158.046 221.529 C 156.772 220.171,156.351 219.432,156.508 218.829 C 156.739 217.947,156.693 217.840,156.267 218.267 M166.800 228.179 C 166.800 228.289,167.340 228.659,168.000 229.000 C 168.660 229.341,169.200 229.531,169.200 229.421 C 169.200 229.311,168.660 228.941,168.000 228.600 C 167.340 228.259,166.800 228.069,166.800 228.179 M180.600 234.000 C 181.040 234.189,181.670 234.344,182.000 234.344 C 182.378 234.344,182.304 234.217,181.800 234.000 C 181.360 233.811,180.730 233.656,180.400 233.656 C 180.022 233.656,180.096 233.783,180.600 234.000 M183.800 234.800 C 184.240 234.989,184.960 235.138,185.400 235.132 C 186.043 235.123,186.004 235.057,185.200 234.800 C 183.832 234.362,182.781 234.362,183.800 234.800 M212.800 234.800 C 211.976 235.064,211.941 235.126,212.600 235.154 C 213.040 235.173,213.670 235.013,214.000 234.800 C 214.701 234.347,214.214 234.347,212.800 234.800 M208.600 235.600 C 207.522 235.874,207.502 235.906,208.400 235.913 C 208.950 235.917,209.850 235.776,210.400 235.600 C 211.744 235.169,210.292 235.169,208.600 235.600 M189.700 235.876 C 190.085 235.976,190.715 235.976,191.100 235.876 C 191.485 235.775,191.170 235.693,190.400 235.693 C 189.630 235.693,189.315 235.775,189.700 235.876 M196.918 236.298 C 198.633 236.373,201.333 236.372,202.918 236.297 C 204.503 236.221,203.100 236.159,199.800 236.160 C 196.500 236.161,195.203 236.222,196.918 236.298 " stroke="none" fill="#747474" fill-rule="evenodd"></path><path id="path2" d="M253.400 112.800 C 254.259 113.680,255.052 114.400,255.162 114.400 C 255.272 114.400,254.659 113.680,253.800 112.800 C 252.941 111.920,252.148 111.200,252.038 111.200 C 251.928 111.200,252.541 111.920,253.400 112.800 M268.920 164.400 C 268.920 165.610,268.995 166.105,269.087 165.500 C 269.178 164.895,269.178 163.905,269.087 163.300 C 268.995 162.695,268.920 163.190,268.920 164.400 M198.900 236.687 C 199.505 236.778,200.495 236.778,201.100 236.687 C 201.705 236.595,201.210 236.520,200.000 236.520 C 198.790 236.520,198.295 236.595,198.900 236.687 " stroke="none" fill="#7c7c7c" fill-rule="evenodd"></path><path id="path3" d="M197.100 90.296 C 198.475 90.374,200.725 90.374,202.100 90.296 C 203.475 90.218,202.350 90.154,199.600 90.154 C 196.850 90.154,195.725 90.218,197.100 90.296 M189.600 90.800 C 188.250 91.084,188.243 91.095,189.400 91.100 C 190.060 91.103,191.140 90.968,191.800 90.800 C 193.460 90.378,191.607 90.378,189.600 90.800 M206.433 90.551 C 206.525 90.634,207.860 90.802,209.400 90.926 C 211.552 91.098,211.830 91.069,210.600 90.798 C 208.983 90.442,206.126 90.273,206.433 90.551 M185.200 91.600 C 184.396 91.857,184.357 91.923,185.000 91.932 C 185.440 91.938,186.160 91.789,186.600 91.600 C 187.619 91.162,186.568 91.162,185.200 91.600 M213.600 91.600 C 214.150 91.776,215.050 91.917,215.600 91.913 C 216.498 91.906,216.478 91.874,215.400 91.600 C 213.708 91.169,212.256 91.169,213.600 91.600 M181.400 92.400 C 180.311 92.677,180.293 92.707,181.200 92.725 C 181.750 92.735,182.560 92.589,183.000 92.400 C 183.986 91.976,183.066 91.976,181.400 92.400 M217.600 92.382 C 217.930 92.605,218.545 92.791,218.967 92.794 C 219.990 92.802,219.671 92.573,218.200 92.244 C 217.324 92.048,217.162 92.085,217.600 92.382 M220.400 93.182 C 220.730 93.405,221.345 93.591,221.767 93.594 C 222.790 93.602,222.471 93.373,221.000 93.044 C 220.124 92.848,219.962 92.885,220.400 93.182 M168.800 96.800 C 168.030 97.222,167.580 97.566,167.800 97.566 C 168.020 97.566,168.830 97.222,169.600 96.800 C 170.370 96.378,170.820 96.034,170.600 96.034 C 170.380 96.034,169.570 96.378,168.800 96.800 M191.400 97.184 C 190.740 97.343,192.090 97.387,194.400 97.283 C 196.710 97.178,198.675 97.027,198.767 96.946 C 199.069 96.681,192.626 96.888,191.400 97.184 M202.833 96.949 C 202.925 97.030,204.530 97.196,206.400 97.317 C 208.870 97.476,209.308 97.443,208.000 97.198 C 206.168 96.853,202.530 96.678,202.833 96.949 M186.600 98.019 C 186.042 98.271,186.285 98.307,187.400 98.138 C 188.280 98.004,189.075 97.828,189.167 97.747 C 189.510 97.444,187.368 97.671,186.600 98.019 M211.800 98.023 C 213.826 98.442,215.463 98.423,213.800 98.000 C 213.140 97.832,212.060 97.694,211.400 97.693 C 210.391 97.692,210.455 97.745,211.800 98.023 M232.833 97.749 C 233.245 98.117,235.600 99.200,235.600 99.021 C 235.600 98.790,233.382 97.600,232.953 97.600 C 232.796 97.600,232.742 97.667,232.833 97.749 M183.000 98.800 C 181.981 99.238,183.032 99.238,184.400 98.800 C 185.204 98.543,185.243 98.477,184.600 98.468 C 184.160 98.462,183.440 98.611,183.000 98.800 M216.200 98.800 C 216.640 98.989,217.270 99.144,217.600 99.144 C 217.978 99.144,217.904 99.017,217.400 98.800 C 216.960 98.611,216.330 98.456,216.000 98.456 C 215.622 98.456,215.696 98.583,216.200 98.800 M162.400 100.033 L 161.400 100.848 162.700 100.214 C 163.415 99.865,164.000 99.494,164.000 99.390 C 164.000 98.992,163.363 99.248,162.400 100.033 M219.000 99.600 C 219.440 99.789,220.070 99.944,220.400 99.944 C 220.778 99.944,220.704 99.817,220.200 99.600 C 219.760 99.411,219.130 99.256,218.800 99.256 C 218.422 99.256,218.496 99.383,219.000 99.600 M157.695 103.011 C 156.543 103.786,155.600 104.508,155.600 104.615 C 155.600 104.721,156.590 104.151,157.800 103.347 C 159.722 102.071,160.287 101.600,159.895 101.600 C 159.837 101.600,158.847 102.235,157.695 103.011 M230.000 103.800 C 231.430 104.549,232.780 105.161,233.000 105.161 C 233.220 105.161,232.230 104.549,230.800 103.800 C 229.370 103.051,228.020 102.439,227.800 102.439 C 227.580 102.439,228.570 103.051,230.000 103.800 M169.100 103.829 C 167.549 104.670,167.725 104.961,169.300 104.159 C 170.808 103.393,171.075 103.194,170.567 103.216 C 170.365 103.225,169.705 103.501,169.100 103.829 M242.800 103.385 C 242.800 103.489,243.799 104.313,245.020 105.215 C 248.202 107.566,253.395 112.358,256.300 115.626 C 257.675 117.172,258.800 118.318,258.800 118.172 C 258.800 117.585,253.071 111.602,249.743 108.713 C 246.195 105.634,242.800 103.028,242.800 103.385 M152.776 106.831 L 150.600 108.861 152.900 106.954 C 155.011 105.204,155.419 104.800,155.076 104.800 C 155.008 104.800,153.973 105.714,152.776 106.831 M166.300 105.429 C 164.805 106.240,164.896 106.578,166.400 105.800 C 167.060 105.459,167.600 105.094,167.600 104.990 C 167.600 104.732,167.557 104.747,166.300 105.429 M162.984 107.511 C 161.638 108.717,161.981 108.611,163.754 107.272 C 164.389 106.792,164.749 106.405,164.554 106.411 C 164.359 106.417,163.653 106.912,162.984 107.511 M158.767 110.504 C 155.314 113.126,154.400 113.894,154.400 114.172 C 154.400 114.314,155.450 113.568,156.733 112.515 C 158.017 111.462,159.592 110.205,160.233 109.722 C 160.875 109.239,161.310 108.836,161.200 108.826 C 161.090 108.817,159.995 109.572,158.767 110.504 M145.789 113.211 C 144.267 114.745,143.122 116.000,143.244 116.000 C 143.549 116.000,148.831 110.697,148.678 110.545 C 148.611 110.478,147.311 111.678,145.789 113.211 M246.600 114.968 C 247.920 116.210,249.990 118.273,251.200 119.551 C 253.371 121.843,253.368 121.837,250.978 119.070 C 249.645 117.527,247.575 115.465,246.378 114.487 L 244.200 112.709 246.600 114.968 M151.586 116.700 L 149.400 119.000 151.700 116.814 C 153.837 114.782,154.183 114.400,153.886 114.400 C 153.824 114.400,152.789 115.435,151.586 116.700 M142.159 117.300 C 140.407 119.321,139.887 120.000,140.090 120.000 C 140.207 120.000,140.967 119.190,141.779 118.200 C 143.281 116.366,143.579 115.663,142.159 117.300 M259.991 119.988 C 260.457 120.641,261.042 121.302,261.291 121.456 C 261.541 121.611,261.241 121.076,260.625 120.268 C 259.288 118.515,258.784 118.292,259.991 119.988 M146.600 122.119 C 144.553 124.712,143.917 125.600,144.106 125.600 C 144.357 125.600,148.483 120.348,148.336 120.215 C 148.261 120.147,147.480 121.003,146.600 122.119 M138.725 121.700 C 136.818 124.257,135.849 125.740,136.248 125.494 C 136.721 125.202,140.138 120.400,139.873 120.400 C 139.775 120.400,139.259 120.985,138.725 121.700 M264.600 126.800 C 264.941 127.460,265.311 128.000,265.421 128.000 C 265.531 128.000,265.341 127.460,265.000 126.800 C 264.659 126.140,264.289 125.600,264.179 125.600 C 264.069 125.600,264.259 126.140,264.600 126.800 M135.053 127.300 L 134.333 128.600 135.158 127.600 C 135.889 126.713,136.214 126.000,135.886 126.000 C 135.824 126.000,135.449 126.585,135.053 127.300 M141.457 129.394 C 140.655 130.600,140.000 131.722,140.000 131.887 C 140.000 132.164,140.844 130.992,142.582 128.300 C 142.972 127.695,143.207 127.200,143.103 127.200 C 142.998 127.200,142.258 128.187,141.457 129.394 M266.200 129.600 C 266.541 130.260,266.911 130.800,267.021 130.800 C 267.131 130.800,266.941 130.260,266.600 129.600 C 266.259 128.940,265.889 128.400,265.779 128.400 C 265.669 128.400,265.859 128.940,266.200 129.600 M132.786 131.501 C 131.945 133.187,131.940 133.200,132.147 133.200 C 132.405 133.200,133.642 130.708,133.469 130.536 C 133.395 130.462,133.088 130.896,132.786 131.501 M193.800 131.600 C 192.453 131.841,192.390 131.891,193.400 131.914 C 194.060 131.929,195.410 131.797,196.400 131.620 C 198.015 131.333,198.056 131.301,196.800 131.307 C 196.030 131.311,194.680 131.442,193.800 131.600 M207.400 131.618 C 210.147 132.046,212.431 132.012,210.000 131.580 C 209.010 131.403,207.570 131.270,206.800 131.283 C 205.655 131.303,205.765 131.364,207.400 131.618 M189.400 132.400 C 188.311 132.677,188.293 132.707,189.200 132.725 C 189.750 132.735,190.560 132.589,191.000 132.400 C 191.986 131.976,191.066 131.976,189.400 132.400 M213.000 132.381 C 213.768 132.729,215.910 132.956,215.567 132.653 C 215.475 132.572,214.680 132.396,213.800 132.262 C 212.685 132.093,212.442 132.129,213.000 132.381 M260.600 133.200 C 260.941 133.860,261.311 134.400,261.421 134.400 C 261.531 134.400,261.341 133.860,261.000 133.200 C 260.659 132.540,260.289 132.000,260.179 132.000 C 260.069 132.000,260.259 132.540,260.600 133.200 M216.600 133.200 C 217.040 133.389,217.670 133.544,218.000 133.544 C 218.378 133.544,218.304 133.417,217.800 133.200 C 217.360 133.011,216.730 132.856,216.400 132.856 C 216.022 132.856,216.096 132.983,216.600 133.200 M262.207 136.279 C 262.807 137.714,263.200 138.362,263.200 137.916 C 263.200 137.484,261.985 134.800,261.789 134.800 C 261.679 134.800,261.867 135.466,262.207 136.279 M130.277 137.077 C 129.900 138.093,129.658 138.991,129.738 139.072 C 129.819 139.152,130.200 138.393,130.585 137.385 C 130.970 136.376,131.212 135.479,131.123 135.390 C 131.035 135.301,130.654 136.060,130.277 137.077 M178.100 136.629 C 176.725 137.409,175.600 138.135,175.600 138.243 C 175.600 138.402,180.578 135.799,181.167 135.332 C 181.950 134.711,180.117 135.486,178.100 136.629 M223.662 135.395 C 224.041 135.775,229.600 138.392,229.600 138.191 C 229.600 137.983,226.028 136.143,224.483 135.556 C 223.897 135.333,223.527 135.261,223.662 135.395 M230.000 138.527 C 230.000 138.613,231.260 139.520,232.800 140.545 C 235.995 142.669,236.558 142.763,233.673 140.691 C 231.648 139.236,230.000 138.265,230.000 138.527 M170.533 142.150 C 168.810 143.773,166.803 145.978,166.074 147.050 C 165.298 148.191,165.203 148.419,165.843 147.600 C 166.445 146.830,168.538 144.625,170.493 142.700 C 174.821 138.439,174.847 138.088,170.533 142.150 M271.256 140.800 C 271.256 141.130,271.411 141.760,271.600 142.200 C 271.817 142.704,271.944 142.778,271.944 142.400 C 271.944 142.070,271.789 141.440,271.600 141.000 C 271.383 140.496,271.256 140.422,271.256 140.800 M238.138 144.581 C 239.814 146.223,240.418 147.086,240.275 147.636 C 240.165 148.057,240.238 148.300,240.437 148.177 C 241.345 147.616,240.618 146.326,238.300 144.386 L 235.800 142.292 238.138 144.581 M134.649 143.815 C 134.512 144.173,134.415 144.766,134.434 145.133 C 134.453 145.500,134.627 145.269,134.821 144.620 C 135.198 143.358,135.065 142.733,134.649 143.815 M127.429 145.429 C 127.281 146.015,127.238 146.572,127.332 146.666 C 127.427 146.760,127.624 146.358,127.771 145.771 C 127.919 145.185,127.962 144.628,127.868 144.534 C 127.773 144.440,127.576 144.842,127.429 145.429 M272.868 146.200 C 272.862 146.640,273.011 147.360,273.200 147.800 C 273.638 148.819,273.638 147.768,273.200 146.400 C 272.943 145.596,272.877 145.557,272.868 146.200 M133.849 146.615 C 133.712 146.973,133.615 147.566,133.634 147.933 C 133.653 148.300,133.827 148.069,134.021 147.420 C 134.398 146.158,134.265 145.533,133.849 146.615 M266.468 147.600 C 266.488 148.639,267.118 150.346,267.132 149.400 C 267.138 148.960,266.989 148.240,266.800 147.800 C 266.589 147.310,266.461 147.232,266.468 147.600 M133.049 149.415 C 132.912 149.773,132.818 150.456,132.841 150.933 C 132.867 151.481,133.003 151.286,133.210 150.403 C 133.560 148.916,133.465 148.333,133.049 149.415 M238.322 150.900 C 236.715 153.324,235.894 154.800,236.152 154.800 C 236.250 154.800,236.913 153.855,237.623 152.700 C 238.333 151.545,239.179 150.195,239.503 149.700 C 239.827 149.205,240.007 148.800,239.903 148.800 C 239.798 148.800,239.087 149.745,238.322 150.900 M125.840 152.440 C 125.693 153.357,125.652 154.185,125.747 154.280 C 125.842 154.376,126.046 153.710,126.200 152.800 C 126.354 151.890,126.396 151.062,126.293 150.960 C 126.190 150.857,125.987 151.523,125.840 152.440 M163.436 151.142 C 162.994 151.858,162.366 153.782,162.699 153.400 C 163.140 152.894,164.039 150.800,163.815 150.800 C 163.723 150.800,163.552 150.954,163.436 151.142 M267.268 151.200 C 267.288 152.239,267.918 153.946,267.932 153.000 C 267.938 152.560,267.789 151.840,267.600 151.400 C 267.389 150.910,267.261 150.832,267.268 151.200 M132.269 153.556 C 132.121 154.295,132.020 155.283,132.044 155.750 C 132.068 156.218,132.247 155.790,132.442 154.800 C 132.637 153.810,132.738 152.823,132.667 152.606 C 132.596 152.390,132.417 152.817,132.269 153.556 M274.473 154.200 C 274.458 154.860,274.595 156.120,274.777 157.000 C 275.213 159.106,275.250 157.214,274.820 154.800 C 274.580 153.450,274.493 153.300,274.473 154.200 M268.274 157.400 C 268.398 158.940,268.566 160.275,268.649 160.367 C 268.927 160.674,268.758 157.817,268.402 156.200 C 268.131 154.970,268.102 155.248,268.274 157.400 M125.020 158.820 C 124.863 160.826,124.819 162.553,124.923 162.656 C 125.027 162.760,125.241 161.205,125.400 159.200 C 125.559 157.195,125.602 155.469,125.497 155.364 C 125.392 155.258,125.177 156.814,125.020 158.820 M233.706 158.300 C 231.240 162.179,231.113 162.400,231.332 162.400 C 231.430 162.400,232.217 161.275,233.079 159.900 C 233.942 158.525,234.973 156.905,235.370 156.300 C 235.767 155.695,235.999 155.200,235.885 155.200 C 235.770 155.200,234.790 156.595,233.706 158.300 M161.050 157.650 C 160.717 159.317,161.040 159.640,161.400 158.000 C 161.552 157.309,161.593 156.659,161.491 156.558 C 161.389 156.456,161.191 156.947,161.050 157.650 M131.461 160.300 C 131.135 163.753,131.166 169.353,131.523 171.347 C 131.675 172.199,131.804 169.454,131.808 165.247 C 131.817 156.639,131.813 156.574,131.461 160.300 M275.359 165.200 C 275.359 168.390,275.421 169.695,275.497 168.100 C 275.573 166.505,275.573 163.895,275.497 162.300 C 275.421 160.705,275.359 162.010,275.359 165.200 M160.546 164.200 C 160.547 166.400,160.614 167.249,160.695 166.087 C 160.776 164.924,160.776 163.124,160.693 162.087 C 160.611 161.049,160.545 162.000,160.546 164.200 M206.835 161.150 C 206.280 161.305,207.215 161.429,209.035 161.443 C 211.598 161.461,211.896 161.407,210.600 161.156 C 208.709 160.790,208.125 160.789,206.835 161.150 M203.920 162.700 C 201.986 164.766,203.434 168.800,206.110 168.800 C 206.372 168.800,205.918 168.347,205.103 167.792 C 202.479 166.009,202.322 164.263,204.624 162.453 C 205.220 161.984,205.537 161.600,205.329 161.600 C 205.120 161.600,204.486 162.095,203.920 162.700 M213.400 162.000 C 213.840 162.189,214.470 162.344,214.800 162.344 C 215.178 162.344,215.104 162.217,214.600 162.000 C 214.160 161.811,213.530 161.656,213.200 161.656 C 212.822 161.656,212.896 161.783,213.400 162.000 M124.835 167.633 C 124.854 169.705,125.007 172.300,125.175 173.400 C 125.352 174.564,125.398 173.060,125.285 169.800 C 125.061 163.382,124.783 162.042,124.835 167.633 M219.600 164.179 C 219.600 164.289,220.140 164.659,220.800 165.000 C 221.460 165.341,222.000 165.531,222.000 165.421 C 222.000 165.311,221.460 164.941,220.800 164.600 C 220.140 164.259,219.600 164.069,219.600 164.179 M228.653 166.200 C 226.964 168.743,227.049 168.715,225.093 167.386 C 224.272 166.828,223.600 166.461,223.600 166.571 C 223.600 166.879,226.532 168.801,226.993 168.795 C 227.217 168.792,227.774 168.207,228.232 167.495 C 228.689 166.783,229.385 165.705,229.778 165.100 C 230.171 164.495,230.407 164.000,230.303 164.000 C 230.198 164.000,229.456 164.990,228.653 166.200 M160.868 169.600 C 160.888 170.639,161.518 172.346,161.532 171.400 C 161.538 170.960,161.389 170.240,161.200 169.800 C 160.989 169.310,160.861 169.232,160.868 169.600 M268.472 171.650 C 268.432 172.668,268.311 174.108,268.201 174.850 L 268.003 176.200 268.422 174.865 C 268.652 174.131,268.774 172.691,268.693 171.665 L 268.544 169.800 268.472 171.650 M161.656 172.800 C 161.656 173.130,161.811 173.760,162.000 174.200 C 162.217 174.704,162.344 174.778,162.344 174.400 C 162.344 174.070,162.189 173.440,162.000 173.000 C 161.783 172.496,161.656 172.422,161.656 172.800 M274.615 175.415 C 274.461 176.654,274.417 177.750,274.519 177.852 C 274.620 177.954,274.830 177.023,274.985 175.785 C 275.139 174.546,275.183 173.450,275.081 173.348 C 274.980 173.246,274.770 174.177,274.615 175.415 M132.028 175.633 C 132.044 176.385,132.212 177.360,132.403 177.800 C 132.626 178.315,132.667 177.887,132.518 176.600 C 132.244 174.222,131.989 173.719,132.028 175.633 M223.600 176.179 C 223.600 176.289,224.140 176.659,224.800 177.000 C 225.460 177.341,226.000 177.531,226.000 177.421 C 226.000 177.311,225.460 176.941,224.800 176.600 C 224.140 176.259,223.600 176.069,223.600 176.179 M125.687 177.200 C 125.683 177.750,125.824 178.650,126.000 179.200 C 126.431 180.544,126.431 179.092,126.000 177.400 C 125.726 176.322,125.694 176.302,125.687 177.200 M163.216 177.038 C 163.196 177.596,166.164 182.207,166.795 182.597 C 167.055 182.758,166.650 182.009,165.893 180.932 C 165.136 179.856,164.228 178.441,163.875 177.788 C 163.521 177.134,163.225 176.797,163.216 177.038 M267.440 178.440 C 267.293 179.357,267.252 180.185,267.347 180.280 C 267.442 180.376,267.646 179.710,267.800 178.800 C 267.954 177.890,267.996 177.062,267.893 176.960 C 267.790 176.857,267.587 177.523,267.440 178.440 M273.800 180.400 C 273.646 181.310,273.604 182.138,273.707 182.240 C 273.810 182.343,274.013 181.677,274.160 180.760 C 274.307 179.843,274.348 179.015,274.253 178.920 C 274.158 178.824,273.954 179.490,273.800 180.400 M132.868 179.800 C 132.862 180.240,133.011 180.960,133.200 181.400 C 133.638 182.419,133.638 181.368,133.200 180.000 C 132.943 179.196,132.877 179.157,132.868 179.800 M231.639 181.907 C 233.311 183.473,235.460 185.935,236.415 187.377 C 238.396 190.369,238.884 190.784,237.526 188.323 C 236.435 186.348,232.578 182.107,230.244 180.319 C 229.340 179.626,229.968 180.340,231.639 181.907 M126.662 182.200 C 126.796 183.080,126.972 183.875,127.053 183.967 C 127.356 184.310,127.129 182.168,126.781 181.400 C 126.529 180.842,126.493 181.085,126.662 182.200 M266.629 182.229 C 266.481 182.815,266.438 183.372,266.532 183.466 C 266.627 183.560,266.824 183.158,266.971 182.571 C 267.119 181.985,267.162 181.428,267.068 181.334 C 266.973 181.240,266.776 181.642,266.629 182.229 M133.656 183.200 C 133.656 183.530,133.811 184.160,134.000 184.600 C 134.217 185.104,134.344 185.178,134.344 184.800 C 134.344 184.470,134.189 183.840,134.000 183.400 C 133.783 182.896,133.656 182.822,133.656 183.200 M273.029 183.829 C 272.881 184.415,272.838 184.972,272.932 185.066 C 273.027 185.160,273.224 184.758,273.371 184.171 C 273.519 183.585,273.562 183.028,273.468 182.934 C 273.373 182.840,273.176 183.242,273.029 183.829 M168.600 184.800 C 169.459 185.680,170.237 186.400,170.328 186.400 C 170.665 186.400,167.786 183.266,167.419 183.234 C 167.209 183.215,167.741 183.920,168.600 184.800 M265.829 185.029 C 265.681 185.615,265.638 186.172,265.732 186.266 C 265.827 186.360,266.024 185.958,266.171 185.371 C 266.319 184.785,266.362 184.228,266.268 184.134 C 266.173 184.040,265.976 184.442,265.829 185.029 M171.196 186.942 C 171.890 187.843,177.200 191.503,177.200 191.080 C 177.200 190.988,176.165 190.235,174.900 189.406 C 173.635 188.577,172.155 187.517,171.612 187.050 C 170.853 186.396,170.756 186.372,171.196 186.942 M238.434 190.600 C 238.434 190.820,238.778 191.630,239.200 192.400 C 239.622 193.170,239.966 193.620,239.966 193.400 C 239.966 193.180,239.622 192.370,239.200 191.600 C 238.778 190.830,238.434 190.380,238.434 190.600 M178.292 191.776 C 179.285 192.508,182.000 193.716,182.000 193.424 C 182.000 193.321,181.145 192.833,180.100 192.339 C 177.435 191.079,177.286 191.033,178.292 191.776 M269.467 194.467 C 269.105 195.388,268.874 196.207,268.954 196.288 C 269.034 196.368,269.400 195.683,269.767 194.767 C 270.133 193.850,270.364 193.031,270.279 192.946 C 270.194 192.861,269.829 193.545,269.467 194.467 M240.068 194.600 C 240.062 195.040,240.211 195.760,240.400 196.200 C 240.838 197.219,240.838 196.168,240.400 194.800 C 240.143 193.996,240.077 193.957,240.068 194.600 M138.406 196.050 C 138.397 196.405,140.433 200.000,140.642 200.000 C 140.738 200.000,140.460 199.325,140.024 198.500 C 139.078 196.711,138.415 195.706,138.406 196.050 M240.870 197.800 C 240.857 198.240,240.995 199.320,241.177 200.200 C 241.455 201.545,241.508 201.609,241.507 200.600 C 241.505 199.199,240.908 196.570,240.870 197.800 M168.392 198.500 C 167.998 199.312,168.011 199.332,168.522 198.700 C 169.293 197.747,169.310 197.753,172.247 199.848 C 173.671 200.865,174.910 201.624,174.998 201.535 C 175.201 201.332,169.699 197.600,169.197 197.600 C 168.994 197.600,168.632 198.005,168.392 198.500 M194.033 198.549 C 194.445 198.917,196.800 200.000,196.800 199.821 C 196.800 199.590,194.582 198.400,194.153 198.400 C 193.996 198.400,193.942 198.467,194.033 198.549 M267.078 199.805 C 266.712 200.572,266.495 201.200,266.596 201.200 C 266.870 201.200,268.084 198.751,267.901 198.568 C 267.814 198.481,267.444 199.038,267.078 199.805 M133.400 200.800 C 133.741 201.460,134.111 202.000,134.221 202.000 C 134.331 202.000,134.141 201.460,133.800 200.800 C 133.459 200.140,133.089 199.600,132.979 199.600 C 132.869 199.600,133.059 200.140,133.400 200.800 M258.211 202.035 C 257.380 203.382,255.811 205.679,254.726 207.141 C 253.640 208.604,253.319 209.170,254.012 208.400 C 255.601 206.635,260.124 199.991,259.894 199.760 C 259.799 199.665,259.041 200.689,258.211 202.035 M198.000 200.905 C 198.550 201.450,199.063 201.841,199.140 201.775 C 199.409 201.542,198.749 200.801,197.878 200.359 C 197.076 199.952,197.086 199.999,198.000 200.905 M140.800 200.568 C 140.800 200.954,144.803 206.755,145.268 207.042 C 145.461 207.161,144.604 205.761,143.362 203.930 C 140.821 200.181,140.800 200.153,140.800 200.568 M175.600 201.796 C 175.600 202.070,178.049 203.284,178.232 203.101 C 178.319 203.014,177.762 202.644,176.995 202.278 C 176.228 201.912,175.600 201.695,175.600 201.796 M164.937 203.900 C 164.286 204.945,163.428 206.295,163.031 206.900 C 162.633 207.505,162.393 208.000,162.497 208.000 C 162.705 208.000,165.184 204.338,165.949 202.900 C 166.796 201.309,166.157 201.940,164.937 203.900 M135.000 203.600 C 135.341 204.260,135.711 204.800,135.821 204.800 C 135.931 204.800,135.741 204.260,135.400 203.600 C 135.059 202.940,134.689 202.400,134.579 202.400 C 134.469 202.400,134.659 202.940,135.000 203.600 M263.081 206.600 C 261.831 208.470,260.880 210.000,260.967 210.000 C 261.168 210.000,263.548 206.664,264.749 204.700 C 266.412 201.979,265.393 203.139,263.081 206.600 M197.734 205.051 C 197.038 205.793,196.609 206.400,196.780 206.400 C 197.204 206.400,199.200 204.375,199.200 203.945 C 199.200 203.489,199.198 203.491,197.734 205.051 M186.200 206.000 C 186.640 206.189,187.360 206.338,187.800 206.332 C 188.443 206.323,188.404 206.257,187.600 206.000 C 186.232 205.562,185.181 205.562,186.200 206.000 M241.033 208.033 C 240.883 209.166,240.841 210.174,240.939 210.272 C 241.037 210.371,241.245 209.528,241.400 208.400 C 241.555 207.272,241.598 206.264,241.494 206.161 C 241.391 206.058,241.184 206.900,241.033 208.033 M137.477 207.631 C 137.875 208.308,138.456 209.073,138.768 209.331 C 139.080 209.589,138.832 209.035,138.215 208.100 C 136.920 206.137,136.409 205.812,137.477 207.631 M191.300 206.691 C 192.125 206.778,193.475 206.778,194.300 206.691 C 195.125 206.605,194.450 206.534,192.800 206.534 C 191.150 206.534,190.475 206.605,191.300 206.691 M147.510 209.800 C 148.607 211.120,149.595 212.560,149.706 213.000 L 149.907 213.800 149.944 213.000 C 149.965 212.548,149.011 211.157,147.748 209.800 L 145.515 207.400 147.510 209.800 M160.722 210.500 C 159.111 213.042,158.309 214.615,159.141 213.600 C 160.076 212.459,161.742 209.600,161.472 209.600 C 161.373 209.600,161.035 210.005,160.722 210.500 M249.849 212.751 C 246.737 215.887,246.738 215.830,249.773 218.787 L 251.607 220.574 254.804 217.396 C 256.562 215.649,258.000 214.103,258.000 213.963 C 258.000 213.822,256.568 215.167,254.819 216.952 L 251.637 220.199 249.987 218.599 C 247.211 215.909,247.210 215.926,250.243 212.784 C 251.722 211.253,252.852 210.000,252.755 210.000 C 252.658 210.000,251.350 211.238,249.849 212.751 M259.944 211.100 C 258.675 212.632,258.219 213.342,258.681 213.065 C 259.193 212.758,260.969 210.400,260.689 210.400 C 260.598 210.400,260.263 210.715,259.944 211.100 M240.249 211.415 C 240.112 211.773,240.015 212.366,240.034 212.733 C 240.053 213.100,240.227 212.869,240.421 212.220 C 240.798 210.958,240.665 210.333,240.249 211.415 M143.600 215.400 C 144.346 216.170,145.047 216.800,145.157 216.800 C 145.267 216.800,144.746 216.170,144.000 215.400 C 143.254 214.630,142.553 214.000,142.443 214.000 C 142.333 214.000,142.854 214.630,143.600 215.400 M146.975 215.700 L 145.800 217.000 147.100 215.825 C 148.312 214.730,148.584 214.400,148.275 214.400 C 148.206 214.400,147.621 214.985,146.975 215.700 M238.278 216.605 C 237.912 217.372,237.695 218.000,237.796 218.000 C 238.070 218.000,239.284 215.551,239.101 215.368 C 239.014 215.281,238.644 215.838,238.278 216.605 M156.014 217.974 C 155.309 219.291,155.527 219.758,157.900 222.014 L 160.200 224.200 158.013 221.899 C 155.930 219.708,155.847 219.541,156.278 218.399 C 156.789 217.046,156.639 216.805,156.014 217.974 M236.185 220.100 C 235.568 221.035,235.320 221.589,235.632 221.331 C 236.233 220.834,237.764 218.400,237.476 218.400 C 237.383 218.400,236.802 219.165,236.185 220.100 M232.200 224.741 C 230.660 226.241,229.041 227.664,228.603 227.904 C 228.165 228.144,227.921 228.454,228.061 228.594 C 228.200 228.733,229.909 227.314,231.857 225.439 C 233.806 223.564,235.310 222.027,235.200 222.022 C 235.090 222.017,233.740 223.241,232.200 224.741 M160.544 224.309 C 160.860 224.821,163.200 226.553,163.200 226.275 C 163.200 226.176,162.539 225.591,161.732 224.975 C 160.924 224.359,160.389 224.059,160.544 224.309 M166.000 228.179 C 166.000 228.289,166.540 228.659,167.200 229.000 C 167.860 229.341,168.400 229.531,168.400 229.421 C 168.400 229.311,167.860 228.941,167.200 228.600 C 166.540 228.259,166.000 228.069,166.000 228.179 M225.700 229.826 C 224.765 230.387,224.000 230.940,224.000 231.055 C 224.000 231.271,226.699 229.738,227.380 229.136 C 228.067 228.528,227.427 228.791,225.700 229.826 M170.454 230.587 C 170.790 230.923,173.600 232.016,173.600 231.811 C 173.600 231.701,172.948 231.338,172.151 231.005 C 170.675 230.389,170.118 230.251,170.454 230.587 M185.800 235.600 C 187.492 236.031,188.944 236.031,187.600 235.600 C 187.050 235.424,186.150 235.283,185.600 235.287 C 184.702 235.294,184.722 235.326,185.800 235.600 M210.800 235.600 C 210.008 235.854,209.967 235.920,210.600 235.920 C 211.040 235.920,211.850 235.776,212.400 235.600 C 213.192 235.346,213.233 235.280,212.600 235.280 C 212.160 235.280,211.350 235.424,210.800 235.600 M191.600 236.397 C 193.901 236.736,198.254 236.909,197.967 236.650 C 197.875 236.568,195.910 236.404,193.600 236.287 C 190.656 236.138,190.058 236.170,191.600 236.397 M204.200 236.400 L 201.800 236.666 203.800 236.703 C 204.900 236.724,206.610 236.597,207.600 236.420 C 209.924 236.007,207.865 235.995,204.200 236.400 " stroke="none" fill="#9d9d9d" fill-rule="evenodd"></path></g></svg>