<svg width="40" height="32" viewBox="0 0 40 32" fill="none" xmlns="http://www.w3.org/2000/svg">
<path d="M7.58301 25.375C7.68066 25.375 7.77832 25.3672 7.87598 25.3555L16.0889 24.2031C16.1865 24.1875 16.2793 24.1523 16.3477 24.0938L37.0459 7.53516C37.0912 7.49902 37.1271 7.45609 37.1516 7.40884C37.1761 7.36158 37.1887 7.31093 37.1887 7.25977C37.1887 7.20861 37.1761 7.15795 37.1516 7.11069C37.1271 7.06344 37.0912 7.02051 37.0459 6.98438L28.9307 0.488281C28.8379 0.414063 28.7158 0.375 28.584 0.375C28.4521 0.375 28.3301 0.414063 28.2373 0.488281L7.53906 17.0469C7.46582 17.1055 7.42188 17.1758 7.40234 17.2539L5.96191 23.8242C5.91441 24.0335 5.93139 24.2489 6.01136 24.4517C6.09134 24.6545 6.23191 24.8387 6.4209 24.9883C6.74316 25.2383 7.14844 25.375 7.58301 25.375V25.375ZM10.874 18.5625L28.584 4.39844L32.1631 7.26172L14.4531 21.4258L10.1123 22.0391L10.874 18.5625V18.5625ZM37.9688 28.6562H2.03125C1.16699 28.6562 0.46875 29.2148 0.46875 29.9062V31.3125C0.46875 31.4844 0.644531 31.625 0.859375 31.625H39.1406C39.3555 31.625 39.5312 31.4844 39.5312 31.3125V29.9062C39.5312 29.2148 38.833 28.6562 37.9688 28.6562Z" fill="#2F387B"/>
</svg>
