<svg width="44" height="30" viewBox="0 0 44 30" fill="none" xmlns="http://www.w3.org/2000/svg">
<path d="M43.7236 28.0117L40.7695 19.6875V1.5625C40.7695 0.871094 40.0713 0.3125 39.207 0.3125H4.83202C3.96777 0.3125 3.26952 0.871094 3.26952 1.5625V19.6875L0.315423 28.0117C-0.0507878 28.8281 0.701165 29.6875 1.78515 29.6875H42.2539C43.3379 29.6875 44.0898 28.8281 43.7236 28.0117ZM6.78515 3.125H37.2539V18.5547H6.78515V3.125V3.125ZM17.9326 26.875L18.3281 25.4297H25.667L26.0625 26.875H17.9326V26.875ZM28.8701 26.875L27.9375 23.4883C27.8984 23.3437 27.7373 23.2422 27.5566 23.2422H16.4434C16.2578 23.2422 16.1016 23.3437 16.0625 23.4883L15.1299 26.875H4.37304L6.43847 21.0547H37.6006L39.666 26.875H28.8701Z" fill="#AAAAAA"/>
</svg>
